<?xml version="1.0" encoding="utf-8"?>
<!-- Generator: Adobe Illustrator 26.1.0, SVG Export Plug-In . SVG Version: 6.00 Build 0)  -->
<svg version="1.1" id="Layer_2" xmlns="http://www.w3.org/2000/svg" xmlns:xlink="http://www.w3.org/1999/xlink" x="0px" y="0px"
	 viewBox="0 0 174.78 117.16" style="enable-background:new 0 0 174.78 117.16;" xml:space="preserve">
<path d="M68.92,2.99c0.94,5.54,1.88,11.07,2.83,16.61C53.3,26.65,34.84,33.69,16.39,40.74c2.86,7.29,5.72,14.58,8.58,21.87
	c11.27-2.47,15.65-3.43,15.66-3.43h0c0.02,0,0.07-0.01,0.07-0.01c0.03-0.01,0.71,4.9,0.09,5.15c-4.69,1.88-8.75,2.36-13.75,3.64
	c6.71,15.24,13.43,30.48,20.14,45.72c-4.71-0.71-9.42-1.42-14.13-2.12C22.98,84.57,12.91,57.58,2.84,30.59
	C24.87,21.39,46.89,12.19,68.92,2.99z"/>
<path d="M77.4,104.81c-2.34,1.83-5.39,1.92-6.17,1.94c-1.3,0.04-3.26-0.1-6.27-1.42c-5.45-2.39-8.38-6.1-9.35-7.22
	c-1.61-1.86-3.5-4.57-6.75-17.02c-0.43-1.67-2.17-8.4-3.77-17.82c-1.49-8.77-1.55-12.15-0.99-15.75c0.52-3.38,1.45-6.12,2.18-7.95
	c0.08-0.21,0.83-0.3,1.01-0.36c0.48-0.14,0.96-0.3,1.43-0.46c0.95-0.32,1.89-0.68,2.84-0.99c1.96-0.65,3.86-0.96,5.91-1.03
	c-0.7,1.23-1.69,3.14-2.52,5.55c-0.64,1.82-2.05,6.41-1.41,17.32c0.31,5.2,0.92,9.07,1.41,12.07c0.29,1.85,2.5,14.94,8.51,23.99
	c0.44,0.66,1.59,2.33,3.93,3.52c2.57,1.31,7.01,2.26,10.01,0.45c1.22-0.72,1.84-1.68,2.16-2.32
	C80.51,100.09,79.74,102.98,77.4,104.81z"/>
<path d="M63.05,55.99c-0.53-1.93-0.44-3.55-0.3-4.79c0.56-5.16,0.97-8.91,4.16-12.78c1.83-2.22,3.75-3.48,4.46-3.93
	c1.53-0.95,3.38-2.11,6.16-2.47c0.82-0.1,3.53-0.42,6.24,0.78c0.81,0.36,2.62,1.16,3.48,2.92c0.21,0.44,0.95,1.94,0.17,3.36
	c-0.82,1.49-2.77,1.9-5.04,2.8c0,0-1.48,0.58-7.53,4.47c-2.4,1.54-6.62,4.85-10.87,11.98C63.71,57.82,63.34,57.01,63.05,55.99z"/>
<path d="M137.95,36.48c-1.41-2.22-3.06-3.73-4.38-4.85c-5.5-4.68-9.49-8.07-16.02-9.85c-3.73-1.02-6.63-1.06-7.69-1.05
	c-2.25,0.02-4.98,0.05-7.74,1.44c-0.81,0.41-3.47,1.8-4.66,4.65c-0.35,0.85-1.15,2.76-0.19,5.01c0.24,0.56,1.07,2.48,3.12,3.38
	c2.16,0.94,4.25,0.13,7.09-0.42c0,0,1.85-0.36,10.88-0.34c3.58,0.01,10.46,0.6,21.07,4.89C139.16,38.67,138.7,37.65,137.95,36.48z"
	/>
<path d="M96.58,65.31c-0.07,0.2-0.13,0.4-0.18,0.52c-0.5,1.25-1.01,2.61-1.72,3.89c-0.73,1.35-2.59,2.46-4.34,3.39
	c-2.83,1.51-6.41,1.55-9.48,1.42c-1.46-0.06-2.87-0.27-3.98-0.85c-0.93-0.49-2.55-1.9-1.64-2.3c2.22-0.96,2.64-1.12,5.8-3.49
	c3.19-2.39,4.31-4.99,5.61-8c1.4-3.22,1.39-5.38,1.31-6.47c-0.14-1.67-0.3-3.21-1.93-3.85c-1.81-0.71-4.36,0.1-5.39,0.42
	c-4.8,1.52-7.42,4.82-8.72,6.52c-4.76,6.18-3.6,11.86-3.12,14.24c0.47,2.31,1.25,3.49,1.8,4.17c0.71,0.91,2.7,3.32,7.15,4.32
	c0.99,0.22,6.36,1.29,11.6-0.87c6.31-2.6,8.87-8.81,7.75-13.11L96.58,65.31z M74.21,61.97c1.29-4.31,2.25-4.86,3.42-5.92
	c1.46-1.31,2.39-1.5,2.9-1.53c1.18-0.06,1.91,0.63,1.95,0.67c0.57,0.55,0.46,1.25,0.36,1.7c-0.82,3.77-3.61,6.74-3.61,6.74
	c-1.01,1.08-2.68,2.65-5.26,4.25C73.78,67.66,73.92,62.93,74.21,61.97z"/>
<path d="M166.02,54.1c-0.08,0.81-0.17,1.62-0.27,2.43c-0.3,2.34-0.7,4.66-1.2,6.96c-0.24,1.11-0.49,2.2-0.79,3.27
	c-0.66,2.4-1.56,4.65-3.23,6.6c-2.75,3.19-6.67,4.37-11,4.62c-0.01,2.83-0.48,11.42-8.06,18.82c-4.36,4.27-9.12,6.22-10.59,6.79
	c-12.24,4.72-24.06,0.86-26.37,0.12c-2.03-0.67-9.62-3.32-15.55-9.72c-1.22-1.32-2.11-2.52-2.71-3.39
	c-0.47,0.04-1.14,0.08-1.93,0.06c-1.2-0.05-3.39-0.16-5.63-1.35c-0.7-0.38-2.11-1.47-3.06-3.69c-0.29-0.67-1.29-4.5-1.34-4.91
	c1.36,0.51,2.21,1.13,3.56,1.44c0.21,0.53,1.16,3.81,1.51,4.31c1,1.4,3.03,2.36,5.08,2.36c0.57,0,2.82,0,4.05-1.51
	c0.69-0.83,0.74-1.74,0.77-2.23c0.08-1.42-0.81-3.25-1.34-4.02c0.77-0.56,1.82-0.82,2.6-1.37c1.95,2.24,2.71,5.02,2.24,6.74
	c-0.46,1.67-1.62,2.64-1.62,2.64c-0.38,0.31-0.74,0.53-1,0.65c1.04,1.6,2.98,4.02,6.35,5.9c2.4,1.33,9.78,4.13,17.11,4.41
	c11.3,0.44,14.36-0.81,21.66-5.54c4.84-3.14,6.95-7.56,7.82-9.71c1.3-3.17,1.49-5.97,1.45-7.8c-2.44-1.44-3.79-2.98-4.5-3.96
	c-3.15-4.31-2.39-9.11-1.79-12.88c0.38-2.37,4.32-13.17,5-14.97l7.15,2.8c-1.1,2.16-4.81,9.32-5.11,10.15
	c-1.24,3.36-1.79,5.82-1.8,7.21c-0.01,0.34-0.01,0.5,0,0.7c0.04,1,0.17,4.57,2.97,6.43c1.92,1.27,4.15,1.1,4.77,1.06
	c2.89-0.22,4.77-1.85,5.67-2.63c4.77-4.22,3.99-10.74,3.77-12.46c-0.15-1.37-0.27-2.73-0.41-4.1c-0.08-0.78-0.09-1.68-0.18-2.56
	L166.02,54.1z"/>
<polygon points="123.95,61.5 132.06,73.12 127.52,77.57 117.85,66.72 105.62,77.14 100.74,73.06 112.32,60.52 99.51,46.16 
	108.68,39.59 118.56,53.76 129.29,42.15 136.72,50.62 "/>
</svg>
